[2026-07-11T21:30:49.126Z] server listening on http://localhost:4173
[2026-07-11T21:36:15.592Z] job b09b49ba-e536-43a3-89a5-140c22c6406e: Input #0, mov,mp4,m4a,3gp,3g2,mj2, from 'C:\Users\Administrator\Documents\Codex\2026-06-14\build-a-web-based-application-that\outputs\inertia-cleanup-google-cloud\data\uploads\b09b49ba-e536-43a3-89a5-140c22c6406e.mp4':
  Metadata:
    major_brand     : isom
    minor_version   : 512
    compatible_brands: isomiso2avc1mp41
    encoder         : Google
  Duration: 00:00:10.01, start: 0.000000, bitrate: 2122 kb/s
[2026-07-11T21:36:15.593Z] job b09b49ba-e536-43a3-89a5-140c22c6406e: Stream #0:0[0x1](und): Video: h264 (High) (avc1 / 0x31637661), yuv420p(progressive), 720x1280, 1983 kb/s, 24 fps, 24 tbr, 12288 tbn (default)
    Metadata:
      handler_name    : VideoHandler
  Stream #0:1[0x2](und): Audio: aac (LC) (mp4a / 0x6134706D), 48000 Hz, stereo, fltp, 128 kb/s (default)
    Metadata:
      handler_name    : SoundHandler
[2026-07-11T21:36:15.601Z] job b09b49ba-e536-43a3-89a5-140c22c6406e: Stream mapping:
  Stream #0:0 -> #0:0 (h264 (native) -> h264 (libx264))
  Stream #0:1 -> #0:1 (copy)
[2026-07-11T21:36:15.601Z] job b09b49ba-e536-43a3-89a5-140c22c6406e: Press [q] to stop, [?] for help
[2026-07-11T21:36:15.629Z] job b09b49ba-e536-43a3-89a5-140c22c6406e: [libx264 @ 0000019aa91d1d40] using cpu capabilities: MMX2 SSE2Fast SSSE3 SSE4.2 AVX FMA3 BMI2 AVX2 AVX512
[2026-07-11T21:36:15.634Z] job b09b49ba-e536-43a3-89a5-140c22c6406e: [libx264 @ 0000019aa91d1d40] profile High, level 3.1, 4:2:0, 8-bit
[2026-07-11T21:36:15.634Z] job b09b49ba-e536-43a3-89a5-140c22c6406e: [libx264 @ 0000019aa91d1d40] 264 - core 165 r3223 0480cb0 - H.264/MPEG-4 AVC codec - Copyleft 2003-2025 - http://www.videolan.org/x264.html - options: cabac=1 ref=5 deblock=1:0:0 analyse=0x3:0x113 me=hex subme=8 psy=1 psy_rd=1.00:0.00 mixed_ref=1 me_range=16 chroma_me=1 trellis=2 8x8dct=1 cqm=0 deadzone=21,11 fast_pskip=1 chroma_qp_offset=-2 threads=24 lookahead_threads=4 sliced_threads=0 nr=0 decimate=1 interlaced=0 bluray_compat=0 constrained_intra=0 bframes=3 b_pyramid=2 b_adapt=1 b_bias=0 direct=3 weightb=1 open_gop=0 weightp=2 keyint=250 keyint_min=24 scenecut=40 intra_refresh=0 rc_lookahead=50 rc=crf mbtree=1 crf=16.0 qcomp=0.60 qpmin=0 qpmax=69 qpstep=4 ip_ratio=1.40 aq=1:1.00
[2026-07-11T21:36:15.634Z] job b09b49ba-e536-43a3-89a5-140c22c6406e: Output #0, mp4, to 'C:\Users\Administrator\Documents\Codex\2026-06-14\build-a-web-based-application-that\outputs\inertia-cleanup-google-cloud\data\exports\b09b49ba-e536-43a3-89a5-140c22c6406e.mp4':
  Metadata:
    major_brand     : isom
    minor_version   : 512
    compatible_brands: isomiso2avc1mp41
    encoder         : Lavf62.12.101
  Stream #0:0(und): Video: h264 (avc1 / 0x31637661), yuv420p(tv, progressive), 720x1280, q=2-31, 24 fps, 12288 tbn (default)
    Metadata:
      encoder         : Lavc62.28.101 libx264
      handler_name    : VideoHandler
    Side data:
      CPB properties: bitrate max/min/avg: 0/0/0 buffer size: 0 vbv_delay: N/A
  Stream #0:1(und): Audio: aac (LC) (mp4a / 0x6134706D), 48000 Hz, stereo, fltp, 128 kb/s (default)
    Metadata:
      handler_name    : SoundHandler
[2026-07-11T21:36:16.105Z] job b09b49ba-e536-43a3-89a5-140c22c6406e: frame=   10 fps=0.0 q=21.0 size=       0KiB time=00:00:00.33 bitrate=   1.2kbits/s speed=0.661x elapsed=0:00:00.50
[2026-07-11T21:36:16.106Z] job b09b49ba-e536-43a3-89a5-140c22c6406e: 
[2026-07-11T21:36:16.623Z] job b09b49ba-e536-43a3-89a5-140c22c6406e: frame=   53 fps= 52 q=21.0 size=     512KiB time=00:00:02.12 bitrate=1974.0kbits/s speed=2.08x elapsed=0:00:01.02
[2026-07-11T21:36:17.143Z] job b09b49ba-e536-43a3-89a5-140c22c6406e: frame=   93 fps= 60 q=21.0 size=    1024KiB time=00:00:03.79 bitrate=2212.5kbits/s speed=2.46x elapsed=0:00:01.54
[2026-07-11T21:36:17.658Z] job b09b49ba-e536-43a3-89a5-140c22c6406e: frame=  137 fps= 67 q=21.0 size=    1536KiB time=00:00:05.62 bitrate=2237.0kbits/s speed=2.73x elapsed=0:00:02.05
[2026-07-11T21:36:18.177Z] job b09b49ba-e536-43a3-89a5-140c22c6406e: frame=  179 fps= 69 q=21.0 size=    2048KiB time=00:00:07.37 bitrate=2274.9kbits/s speed=2.86x elapsed=0:00:02.57
[2026-07-11T21:36:18.684Z] job b09b49ba-e536-43a3-89a5-140c22c6406e: frame=  219 fps= 71 q=-1.0 size=    2560KiB time=00:00:09.04 bitrate=2319.5kbits/s speed=2.93x elapsed=0:00:03.08
[2026-07-11T21:36:18.845Z] job b09b49ba-e536-43a3-89a5-140c22c6406e: [mp4 @ 0000019aa91e6d80] Starting second pass: moving the moov atom to the beginning of the file
[2026-07-11T21:36:18.860Z] job b09b49ba-e536-43a3-89a5-140c22c6406e: [out#0/mp4 @ 0000019aa914b780] video:2919KiB audio:157KiB subtitle:0KiB other streams:0KiB global headers:0KiB muxing overhead: 0.266135%
frame=  240 fps= 74 q=-1.0 Lsize=    3084KiB time=00:00:09.91 bitrate=2547.6kbits/s speed=3.04x elapsed=0:00:03.25
[2026-07-11T21:36:18.861Z] job b09b49ba-e536-43a3-89a5-140c22c6406e: [libx264 @ 0000019aa91d1d40] frame I:1     Avg QP:15.87  size: 76847
[libx264 @ 0000019aa91d1d40] frame P:61    Avg QP:15.79  size: 29959
[libx264 @ 0000019aa91d1d40] frame B:178   Avg QP:19.04  size:  6088
[libx264 @ 0000019aa91d1d40] consecutive B-frames:  0.8%  0.8%  0.0% 98.3%
[libx264 @ 0000019aa91d1d40] mb I  I16..4: 12.9% 60.4% 26.6%
[libx264 @ 0000019aa91d1d40] mb P  I16..4:  1.2%  3.9%  1.0%  P16..4: 47.2% 26.7% 12.4%  0.0%  0.0%    skip: 7.6%
[2026-07-11T21:36:18.861Z] job b09b49ba-e536-43a3-89a5-140c22c6406e: [libx264 @ 0000019aa91d1d40] mb B  I16..4:  0.1%  0.3%  0.1%  B16..8: 48.8%  6.8%  1.1%  direct: 2.5%  skip:40.3%  L0:46.3% L1:41.1% BI:12.5%
[libx264 @ 0000019aa91d1d40] 8x8 transform intra:62.7% inter:61.3%
[libx264 @ 0000019aa91d1d40] direct mvs  spatial:93.3% temporal:6.7%
[libx264 @ 0000019aa91d1d40] coded y,uvDC,uvAC intra: 62.4% 80.2% 45.1% inter: 13.4% 21.0% 1.5%
[libx264 @ 0000019aa91d1d40] i16 v,h,dc,p: 27% 26% 10% 37%
[libx264 @ 0000019aa91d1d40] i8 v,h,dc,ddl,ddr,vr,hd,vl,hu: 19% 22% 18%  4%  8%  8%  7%  5%  8%
[libx264 @ 0000019aa91d1d40] i4 v,h,dc,ddl,ddr,vr,hd,vl,hu: 17% 30%  9%  5% 10%  9%  9%  5%  6%
[libx264 @ 0000019aa91d1d40] i8c dc,h,v,p: 39% 30% 20% 11%
[libx264 @ 0000019aa91d1d40] Weighted P-Frames: Y:1.6% UV:1.6%
[libx264 @ 0000019aa91d1d40] ref P L0: 54.2% 12.3% 22.3%  7.8%  3.3%
[libx264 @ 0000019aa91d1d40] ref B L0: 78.5% 16.1%  4.3%  1.2%
[libx264 @ 0000019aa91d1d40] ref B L1: 94.0%  6.0%
[libx264 @ 0000019aa91d1d40] kb/s:2390.46
[2026-07-11T21:42:38.394Z] server listening on http://localhost:4173
[2026-07-11T21:43:17.835Z] job 8689becc-1dd7-4174-a179-1d9b3f2b3c5d: Input #0, mov,mp4,m4a,3gp,3g2,mj2, from 'C:\Users\Administrator\Documents\Codex\2026-06-14\build-a-web-based-application-that\outputs\inertia-cleanup-google-cloud\data\uploads\8689becc-1dd7-4174-a179-1d9b3f2b3c5d.mp4':
  Metadata:
    major_brand     : isom
    minor_version   : 512
    compatible_brands: isomiso2avc1mp41
    encoder         : Google
  Duration: 00:00:10.01, start: 0.000000, bitrate: 2122 kb/s
[2026-07-11T21:43:17.836Z] job 8689becc-1dd7-4174-a179-1d9b3f2b3c5d: Stream #0:0[0x1](und): Video: h264 (High) (avc1 / 0x31637661), yuv420p(progressive), 720x1280, 1983 kb/s, 24 fps, 24 tbr, 12288 tbn (default)
    Metadata:
      handler_name    : VideoHandler
  Stream #0:1[0x2](und): Audio: aac (LC) (mp4a / 0x6134706D), 48000 Hz, stereo, fltp, 128 kb/s (default)
    Metadata:
      handler_name    : SoundHandler
[2026-07-11T21:43:17.844Z] job 8689becc-1dd7-4174-a179-1d9b3f2b3c5d: Stream mapping:
  Stream #0:0 -> #0:0 (h264 (native) -> h264 (libx264))
  Stream #0:1 -> #0:1 (copy)
[2026-07-11T21:43:17.844Z] job 8689becc-1dd7-4174-a179-1d9b3f2b3c5d: Press [q] to stop, [?] for help
[2026-07-11T21:43:17.874Z] job 8689becc-1dd7-4174-a179-1d9b3f2b3c5d: [libx264 @ 000001ec6c700980] using cpu capabilities: MMX2 SSE2Fast SSSE3 SSE4.2 AVX FMA3 BMI2 AVX2 AVX512
[2026-07-11T21:43:17.878Z] job 8689becc-1dd7-4174-a179-1d9b3f2b3c5d: [libx264 @ 000001ec6c700980] profile High, level 3.1, 4:2:0, 8-bit
[2026-07-11T21:43:17.878Z] job 8689becc-1dd7-4174-a179-1d9b3f2b3c5d: [libx264 @ 000001ec6c700980] 264 - core 165 r3223 0480cb0 - H.264/MPEG-4 AVC codec - Copyleft 2003-2025 - http://www.videolan.org/x264.html - options: cabac=1 ref=5 deblock=1:0:0 analyse=0x3:0x113 me=hex subme=8 psy=1 psy_rd=1.00:0.00 mixed_ref=1 me_range=16 chroma_me=1 trellis=2 8x8dct=1 cqm=0 deadzone=21,11 fast_pskip=1 chroma_qp_offset=-2 threads=24 lookahead_threads=4 sliced_threads=0 nr=0 decimate=1 interlaced=0 bluray_compat=0 constrained_intra=0 bframes=3 b_pyramid=2 b_adapt=1 b_bias=0 direct=3 weightb=1 open_gop=0 weightp=2 keyint=250 keyint_min=24 scenecut=40 intra_refresh=0 rc_lookahead=50 rc=crf mbtree=1 crf=16.0 qcomp=0.60 qpmin=0 qpmax=69 qpstep=4 ip_ratio=1.40 aq=1:1.00
Output #0, mp4, to 'C:\Users\Administrator\Documents\Codex\2026-06-14\build-a-web-based-application-that\outputs\inertia-cleanup-google-cloud\data\exports\8689becc-1dd7-4174-a179-1d9b3f2b3c5d.mp4':
  Metadata:
    major_brand     : isom
    minor_version   : 512
    compatible_brands: isomiso2avc1mp41
    encoder         : Lavf62.12.101
  Stream #0:0(und)
[2026-07-11T21:43:17.878Z] job 8689becc-1dd7-4174-a179-1d9b3f2b3c5d: : Video: h264 (avc1 / 0x31637661), yuv420p(tv, progressive), 720x1280, q=2-31, 24 fps, 12288 tbn (default)
    Metadata:
      encoder         : Lavc62.28.101 libx264
      handler_name    : VideoHandler
    Side data:
      CPB properties: bitrate max/min/avg: 0/0/0 buffer size: 0 vbv_delay: N/A
  Stream #0:1(und): Audio: aac (LC) (mp4a / 0x6134706D), 48000 Hz, stereo, fltp, 128 kb/s (default)
    Metadata:
      handler_name    : SoundHandler
[2026-07-11T21:43:18.359Z] job 8689becc-1dd7-4174-a179-1d9b3f2b3c5d: frame=   14 fps=0.0 q=21.0 size=       0KiB time=00:00:00.50 bitrate=   0.8kbits/s speed=0.97x elapsed=0:00:00.51
[2026-07-11T21:43:18.871Z] job 8689becc-1dd7-4174-a179-1d9b3f2b3c5d: frame=   53 fps= 52 q=21.0 size=     512KiB time=00:00:02.12 bitrate=1974.0kbits/s speed=2.07x elapsed=0:00:01.02
[2026-07-11T21:43:19.389Z] job 8689becc-1dd7-4174-a179-1d9b3f2b3c5d: frame=  101 fps= 65 q=21.0 size=    1024KiB time=00:00:04.12 bitrate=2033.7kbits/s speed=2.67x elapsed=0:00:01.54
[2026-07-11T21:43:19.914Z] job 8689becc-1dd7-4174-a179-1d9b3f2b3c5d: frame=  137 fps= 66 q=21.0 size=    1536KiB time=00:00:05.62 bitrate=2237.0kbits/s speed=2.72x elapsed=0:00:02.06
[2026-07-11T21:43:20.428Z] job 8689becc-1dd7-4174-a179-1d9b3f2b3c5d: frame=  183 fps= 71 q=21.0 size=    2048KiB time=00:00:07.54 bitrate=2224.7kbits/s speed=2.92x elapsed=0:00:02.58
[2026-07-11T21:43:20.933Z] job 8689becc-1dd7-4174-a179-1d9b3f2b3c5d: frame=  219 fps= 71 q=-1.0 size=    2560KiB time=00:00:09.04 bitrate=2319.5kbits/s speed=2.93x elapsed=0:00:03.08
[2026-07-11T21:43:21.124Z] job 8689becc-1dd7-4174-a179-1d9b3f2b3c5d: [mp4 @ 000001ec6c7000c0] Starting second pass: moving the moov atom to the beginning of the file
[2026-07-11T21:43:21.139Z] job 8689becc-1dd7-4174-a179-1d9b3f2b3c5d: [out#0/mp4 @ 000001ec6a76af80] video:2916KiB audio:157KiB subtitle:0KiB other streams:0KiB global headers:0KiB muxing overhead: 0.266393%
frame=  240 fps= 73 q=-1.0 Lsize=    3081KiB time=00:00:09.91 bitrate=2545.1kbits/s speed=3.01x elapsed=0:00:03.29
[2026-07-11T21:43:21.140Z] job 8689becc-1dd7-4174-a179-1d9b3f2b3c5d: [libx264 @ 000001ec6c700980] frame I:1     Avg QP:15.83  size: 78237
[libx264 @ 000001ec6c700980] frame P:61    Avg QP:15.75  size: 30061
[libx264 @ 000001ec6c700980] frame B:178   Avg QP:19.06  size:  6028
[libx264 @ 000001ec6c700980] consecutive B-frames:  0.8%  0.8%  0.0% 98.3%
[libx264 @ 000001ec6c700980]
[2026-07-11T21:43:21.140Z] job 8689becc-1dd7-4174-a179-1d9b3f2b3c5d: mb I  I16..4: 12.4% 60.5% 27.1%
[libx264 @ 000001ec6c700980] mb P  I16..4:  1.0%  3.5%  0.9%  P16..4: 47.5% 27.0% 12.4%  0.0%  0.0%    skip: 7.7%
[libx264 @ 000001ec6c700980] mb B  I16..4:  0.1%  0.3%  0.1%  B16..8: 49.1%  6.7%  1.1%  direct: 2.4%  skip:40.3%  L0:46.4% L1:41.1% BI:12.5%
[libx264 @ 000001ec6c700980] 8x8 transform intra:63.5% inter:61.3%
[libx264 @ 000001ec6c700980] direct mvs  spatial:93.3% temporal:6.7%
[libx264 @ 000001ec6c700980] coded y,uvDC,uvAC intra: 65.1% 82.3% 45.9% inter: 13.4% 20.8% 1.5%
[libx264 @ 000001ec6c700980] i16 v,h,dc,p: 24% 28% 11% 37%
[libx264 @ 000001ec6c700980] i8 v,h,dc,ddl,ddr,vr,hd,vl,hu: 16% 23% 18%  5%  9%  8%  8%  5%  8%
[libx264 @ 000001ec6c700980] i4 v,h,dc,ddl,ddr,vr,hd,vl,hu: 14% 31%  9%  5% 11%  9%  9%  5%  7%
[libx264 @ 000001ec6c700980] i8c dc,h,v,p: 40% 30% 20% 11%
[libx264 @ 000001ec6c700980] Weighted P-Frames: Y:1.6% UV:1.6%
[libx264 @ 000001ec6c700980] ref P L0: 54.4% 12.3% 22.4%  7.7%  3.2%
[libx264 @ 000001ec6c700980] ref B L0: 78.6% 16.0%  4.2%  1.2%
[libx264 @ 000001ec6c700980] ref B L1: 94.0%  6.0%
[libx264 @ 000001ec6c700980] kb/s:2388.01
